<svg width="139" height="42" viewBox="0 0 139 42" fill="none" xmlns="http://www.w3.org/2000/svg">
<path fill-rule="evenodd" clip-rule="evenodd" d="M2.24862 0H38.4764C39.6979 0 40.6972 1.01595 40.6972 2.28589V39.1141C40.6972 40.384 39.6979 41.4 38.4486 41.4H28.0661V25.3705H33.3684L34.1735 19.1337H28.0939V15.1546C28.0939 13.3485 28.5936 12.1067 31.1475 12.1067H34.3956V6.51902C33.8403 6.43436 31.8971 6.26502 29.6485 6.26502C24.9569 6.26502 21.7367 9.2 21.7367 14.5337V19.1337H16.4344V25.3705H21.7367V41.4H2.24862C0.999388 41.4 0 40.384 0 39.1141V2.28589C0 1.01595 0.999388 0 2.24862 0ZM84.5592 17.3843V1.46768H86.4192V11.3732L90.2502 6.20879H92.4433L88.2237 11.7401L92.6099 17.3843H90.4168L86.4192 12.0787V17.3843H84.5592ZM61.1292 2.37059H63.0169V17.3841H61.268V5.86997L58.02 13.4332H56.271L53.023 5.86997V17.3841H51.2741V2.37059H53.1341L57.1316 11.5988L61.1292 2.37059ZM74.2045 17.3841H72.6221L72.5111 16.4528C71.9003 16.9608 70.3735 17.6099 69.0132 17.6099C66.6535 17.6099 65.7374 16.1988 65.7374 14.1105C65.7374 11.9093 66.8201 10.7522 69.152 10.7522C70.5401 10.7522 71.7615 11.1191 72.3445 11.3731V9.65158C72.3445 8.21232 71.9003 7.59146 70.2624 7.59146C69.2908 7.59146 68.3192 7.73257 67.3198 8.01478L67.0422 6.46263C67.9861 6.1522 69.3186 5.95466 70.4568 5.95466C73.0108 5.95466 74.2045 7.08349 74.2045 9.5387V17.3841ZM72.3445 12.6712C71.7338 12.4737 70.5123 12.1915 69.4019 12.1915C67.9028 12.1915 67.5419 12.9252 67.5419 14.1669C67.5419 15.5497 67.9861 16.1988 69.2631 16.1988C70.5956 16.1988 71.706 15.6908 72.3167 15.2393V12.6712H72.3445ZM79.1737 8.97434C80.1175 8.46636 81.3668 8.04305 82.616 7.78907L82.3661 6.03937C80.9226 6.18047 79.7011 6.82956 79.0349 7.50686L78.8405 6.20869H77.3137V17.4124H79.1737V8.97434ZM98.5229 16.1423C96.2742 16.1423 95.6913 15.0134 95.5802 12.6429H102.382V10.8085C102.382 8.12757 101.132 5.98279 98.1342 5.98279C94.7752 5.98279 93.7202 8.52267 93.7202 11.7398C93.7202 14.8723 94.5253 17.638 98.4951 17.638C99.6888 17.638 101.132 17.3558 102.048 16.9607L101.771 15.5214C100.91 15.8601 99.6888 16.1423 98.5229 16.1423ZM100.577 11.1472H95.5802C95.608 8.91776 96.0521 7.39383 98.1064 7.42205C99.9386 7.42205 100.577 8.66377 100.577 10.7521V11.1472ZM110.682 17.2712C110.21 17.4405 109.127 17.6099 108.406 17.6099C106.518 17.6099 105.713 16.5375 105.713 14.816V7.73255H103.797V6.20862H105.713V3.47119L107.573 3.18898V6.1804H110.71L110.543 7.70432H107.573V14.7031C107.573 15.7473 107.823 16.0577 108.85 16.0577C109.294 16.0577 109.933 15.9731 110.516 15.832L110.682 17.2712ZM115.124 2.93502C115.124 2.20127 114.596 1.66508 113.875 1.66508C113.153 1.66508 112.653 2.20127 112.625 2.93502C112.625 3.66876 113.153 4.20496 113.875 4.20496C114.624 4.20496 115.124 3.66876 115.124 2.93502ZM114.818 6.20864H112.958V17.4123H114.818V6.20864ZM124.646 17.3841V9.22827C124.646 8.21232 124.229 7.70435 123.147 7.70435C121.981 7.70435 120.843 8.09944 120.037 8.43809V17.3841H118.177V6.18042H119.677L119.843 7.16815C120.731 6.54729 122.12 5.95466 123.619 5.95466C125.506 5.95466 126.534 7.02705 126.534 9.03073V17.3841H124.646ZM138.304 6.20856H134.806C134.306 6.06746 133.751 5.98279 133.113 5.98279C130.392 5.98279 129.032 7.28095 129.032 9.67972C129.032 11.1754 129.726 12.3043 130.92 12.8969C130.337 13.2355 129.643 13.7435 129.643 14.7595C129.643 15.4086 129.892 15.9165 130.364 16.2552C129.504 16.6785 128.616 17.2994 128.616 18.654C128.616 20.7705 130.17 21.6736 133.057 21.6736C136.028 21.6736 138.11 20.4883 138.11 18.0895C138.11 16.3398 136.916 15.0981 134.973 15.0981H132.474C131.752 15.0981 131.475 14.8441 131.475 14.3079C131.475 13.8 131.725 13.4895 131.975 13.2638C132.308 13.3484 132.724 13.3767 133.141 13.3767C135.667 13.3767 137.249 11.9938 137.249 9.67972C137.249 8.9742 137.11 8.29691 136.833 7.78893L138.304 7.50672V6.20856ZM130.364 18.5129C130.364 17.6098 130.809 17.0736 131.308 16.6503C131.447 16.7067 131.864 16.7349 132.197 16.7349H134.584C135.778 16.7349 136.25 17.4405 136.25 18.2871C136.25 19.7828 135.056 20.2908 133.113 20.2908C131.447 20.2908 130.364 19.811 130.364 18.5129ZM130.809 9.67972C130.809 7.98647 131.558 7.33739 133.141 7.33739C134.667 7.33739 135.5 8.04291 135.5 9.67972C135.5 11.2883 134.612 12.0221 133.141 12.0221C131.669 12.0221 130.809 11.373 130.809 9.67972ZM53.1896 34.3731V39.9608H51.2741V24.9191H55.688C59.1026 24.9191 60.3518 26.8945 60.3518 29.632C60.3518 32.3694 59.1026 34.3449 55.688 34.3449H53.1896V34.3731ZM53.1896 32.7927H55.6325C57.8534 32.7927 58.4641 31.4946 58.4641 29.6602C58.4641 27.7976 57.8534 26.5277 55.6325 26.5277H53.1896V32.7927ZM68.1804 39.9608H69.7628V32.1154C69.7628 29.6602 68.5691 28.5314 66.0151 28.5314C64.8769 28.5314 63.5444 28.7289 62.6005 29.0393L62.8781 30.5915C63.8775 30.3093 64.8491 30.1682 65.8208 30.1682C67.4586 30.1682 67.9028 30.789 67.9028 32.2283V33.9498C67.3198 33.6958 66.0706 33.3289 64.7103 33.3289C62.3784 33.3289 61.2958 34.486 61.2958 36.6872C61.2958 38.7755 62.2119 40.1866 64.5715 40.1866C65.9318 40.1866 67.4586 39.5375 68.0694 39.0295L68.1804 39.9608ZM64.9602 34.7682C66.0706 34.7682 67.2921 35.0504 67.9028 35.2479H67.875V37.816C67.2643 38.2676 66.1539 38.7755 64.8214 38.7755C63.5444 38.7755 63.1002 38.1264 63.1002 36.7436C63.1002 35.5019 63.4611 34.7682 64.9602 34.7682ZM78.1742 30.3657C76.925 30.6197 75.6758 31.043 74.7319 31.551V39.989H72.8719V28.7853H74.3988L74.5931 30.0835C75.2594 29.4062 76.4808 28.7571 77.9244 28.616L78.1742 30.3657ZM83.5044 40.1865C84.2262 40.1865 85.3088 40.0172 85.7807 39.8479L85.6419 38.4086C85.059 38.5497 84.4205 38.6344 83.9763 38.6344C82.9492 38.6344 82.6993 38.324 82.6993 37.2798V30.281H85.6697L85.8363 28.7571H82.6993V25.7657L80.8393 26.0479V28.7853H78.9239V30.3093H80.8116V37.3927C80.8116 39.1142 81.6167 40.1865 83.5044 40.1865ZM94.5531 39.9608V31.805C94.5531 30.789 94.1367 30.2811 93.054 30.2811C91.8881 30.2811 90.7499 30.6761 89.9448 31.0148V39.9608H88.0848V28.7571H89.5839L89.7505 29.7449C90.6388 29.124 92.0269 28.5314 93.5259 28.5314C95.4137 28.5314 96.4408 29.6038 96.4408 31.6074V39.9608H94.5531ZM103.714 38.719C101.466 38.719 100.883 37.5902 100.772 35.2196H107.573V33.3853C107.573 30.7043 106.324 28.5595 103.326 28.5595C99.9664 28.5595 98.9115 31.0994 98.9115 34.3166C98.9115 37.4491 99.7166 40.2147 103.686 40.2147C104.88 40.2147 106.324 39.9325 107.24 39.5374L106.962 38.0982C106.102 38.4368 104.88 38.719 103.714 38.719ZM105.768 33.7239H100.772C100.772 31.4945 101.216 29.9706 103.298 29.9988C105.13 29.9988 105.768 31.2405 105.768 33.3288V33.7239ZM115.485 30.3657C114.235 30.6197 112.986 31.043 112.042 31.551V39.989H110.182V28.7853H111.709L111.904 30.0835C112.57 29.4062 113.791 28.7571 115.235 28.616L115.485 30.3657Z" fill="#3D3D3D"/>
</svg>
