<svg width="80" height="89" viewBox="0 0 80 89" fill="none" xmlns="http://www.w3.org/2000/svg">
<path fill-rule="evenodd" clip-rule="evenodd" d="M44.1756 7.5726C44.1756 7.76775 44.5472 7.80531 44.9386 7.84486C45.3737 7.88884 45.8333 7.93529 45.8333 8.20358C45.8333 8.46135 45.5212 9.02419 45.213 9.58003C44.9124 10.1222 44.6155 10.6577 44.6155 10.8968C44.6155 11.019 44.6396 11.019 44.7362 11.019C44.9853 11.019 45.5022 10.5621 45.9799 10.1399C46.3903 9.77715 46.7717 9.43999 46.9296 9.43999C47.2796 9.43999 47.3743 10.1964 47.4442 10.7552L47.4442 10.7557C47.4525 10.8224 47.4605 10.8862 47.4686 10.9456C47.5166 11.2375 47.5659 11.2615 47.6885 11.2615C47.8321 11.2615 48.0168 10.9919 48.2046 10.7178C48.399 10.434 48.5969 10.1453 48.756 10.1453C48.9039 10.1453 49.1323 10.2775 49.4426 10.4572C50.1004 10.838 51.1263 11.432 52.5339 11.432C55.479 11.432 58.2571 9.36811 58.2571 5.72837C58.2571 2.20804 55.7692 0.144568 52.3383 0.144568C51.3326 0.144568 50.4923 0.44891 49.8473 0.682518C49.4456 0.828017 49.1196 0.946077 48.8766 0.946077C48.6688 0.959468 48.4024 0.681654 48.155 0.423701C47.945 0.204692 47.7487 0 47.6136 0C47.4922 0 47.3704 0.241211 47.3704 0.654545C47.3704 0.922514 47.3704 1.77115 47.0783 1.77115C46.8318 1.77115 46.2885 1.4749 45.7417 1.17674C44.9886 0.766127 44.2289 0.351894 44.2289 0.702869C44.2289 0.999435 44.6539 1.61748 45.0528 2.19744C45.4054 2.71007 45.7375 3.19293 45.7375 3.39773C45.7375 3.63807 45.2874 3.87152 44.8829 4.08133C44.5527 4.25255 44.2529 4.40804 44.2529 4.53869C44.2529 4.78929 44.6022 4.94368 44.9726 5.10743C45.3909 5.29231 45.8361 5.48912 45.8361 5.84978C45.8344 6.21326 45.3585 6.53531 44.9167 6.83431C44.5333 7.09376 44.1756 7.33585 44.1756 7.5726ZM52.3115 1.28593C54.7197 1.28593 56.1582 2.93687 56.1582 5.70361C56.1598 9.19958 53.7023 10.0726 52.386 10.0726C50.679 10.0726 49.5582 9.22394 49.5582 8.78585C49.5582 8.567 49.7037 8.42243 49.9004 8.42243C50.1893 8.42243 50.6629 8.66239 51.0991 8.88337C51.4713 9.07195 51.8162 9.24671 51.9957 9.24671C52.0943 9.24671 52.1664 9.19918 52.1664 9.05302C52.1664 8.82427 52.0532 8.51609 51.9451 8.22214L51.9451 8.2221C51.8466 7.95412 51.7525 7.69799 51.7525 7.52468C51.7525 7.42684 51.8262 7.35495 51.9721 7.35495C52.3215 7.35495 52.76 7.43028 53.1713 7.50094C53.5346 7.56335 53.8767 7.62212 54.1175 7.62212C54.2882 7.62212 54.3358 7.52468 54.3358 7.42684C54.3358 7.12503 53.8295 6.66042 53.3892 6.25643C53.0506 5.9457 52.7511 5.67082 52.7511 5.53349C52.7511 5.4047 53.1376 5.24691 53.5683 5.07113C54.1097 4.85011 54.7209 4.60064 54.7209 4.3446C54.7209 4.09847 54.034 4.06425 53.3559 4.03047C52.6951 3.99755 52.0426 3.96504 52.0426 3.73718C52.0426 3.55724 52.1866 3.30897 52.322 3.07563C52.4419 2.86877 52.5551 2.67366 52.5551 2.54829C52.5551 2.42689 52.4573 2.37857 52.287 2.37857C52.1989 2.37857 51.9574 2.45295 51.6684 2.54197C51.2378 2.67464 50.7016 2.83983 50.4097 2.83983C50.1669 2.83983 49.8728 2.7915 49.8728 2.45045C49.8728 1.89215 50.8237 1.28593 52.3115 1.28593ZM46.6852 4.39292C46.6852 4.3446 46.7333 4.32024 46.8066 4.32024C46.9309 4.32024 47.0967 4.34092 47.2752 4.36319C47.4834 4.38916 47.709 4.41728 47.9061 4.41728C48.0758 4.41728 48.1685 4.02772 48.2547 3.66567C48.3295 3.3514 48.3994 3.05787 48.5104 3.05787C48.5862 3.05787 48.6857 3.31061 48.7964 3.59206C48.9355 3.94567 49.0925 4.3446 49.2429 4.3446C49.4112 4.3446 49.6557 4.2412 49.8843 4.14453C50.085 4.05967 50.2734 3.97999 50.3873 3.97999C50.435 3.97999 50.4847 4.00355 50.4847 4.05307C50.4847 4.13529 50.3423 4.33055 50.1952 4.53235C50.0379 4.74811 49.8752 4.97133 49.8752 5.07183C49.8752 5.18454 50.2373 5.31017 50.5885 5.43203C50.9193 5.54679 51.2404 5.6582 51.2404 5.75233C51.2404 5.8772 50.8742 5.93154 50.5178 5.98442C50.1801 6.03453 49.8512 6.08334 49.8512 6.18963C49.8512 6.26839 49.963 6.4589 50.0822 6.66183L50.0822 6.66187C50.218 6.89314 50.3633 7.14055 50.3633 7.25711C50.3633 7.30623 50.3376 7.33059 50.2891 7.33059C50.1939 7.33059 49.9666 7.25004 49.733 7.16723C49.4859 7.07965 49.2317 6.98954 49.1191 6.98954C48.9778 6.98954 48.7911 7.26425 48.6139 7.52507C48.4537 7.76078 48.3013 7.98514 48.197 7.98514C48.1245 7.98514 48.0752 7.88809 48.0752 7.76629L48.0267 6.79625C48.0267 6.69921 47.9795 6.60137 47.856 6.60137C47.6909 6.60137 47.4398 6.59345 47.2216 6.58657C47.0537 6.58128 46.9053 6.57661 46.8302 6.57661C46.7076 6.57661 46.6603 6.55264 46.6603 6.50392C46.6597 6.4035 46.921 6.17326 47.1733 5.95093C47.4086 5.74358 47.6361 5.54311 47.6361 5.4612C47.6368 5.32983 47.4083 5.14048 47.1751 4.94727C46.9327 4.74639 46.6852 4.54133 46.6852 4.39292ZM9.63356 5.17196C8.45047 5.15689 7.27734 5.14195 7.27734 4.78083C7.27734 4.32364 8.31698 3.68008 9.24423 3.10608C9.99038 2.6442 10.6637 2.22736 10.6641 1.98892C10.6641 1.71889 9.89829 1.53392 9.10853 1.34318C8.26781 1.14013 7.39996 0.930519 7.39996 0.604753C7.39996 0.191818 8.17893 0.0240885 9.61626 0.0240885C10.8096 0.0240885 13.9026 0.337983 13.9026 1.04245C13.9026 1.4459 13.2404 1.84955 12.5834 2.25008C11.9364 2.64447 11.2944 3.03584 11.2944 3.42102C11.2944 3.89868 12.2734 3.98588 13.2181 4.07003C14.0986 4.14846 14.9493 4.22423 14.9493 4.6111C14.9493 5.0597 14.1647 5.81007 13.4487 6.49483L13.4487 6.49483L13.4487 6.49486L13.4487 6.49487C12.8479 7.0695 12.2954 7.59794 12.2954 7.86306C12.2954 7.96091 12.4168 8.00923 12.515 8.00923C12.8169 8.00923 13.3521 7.73247 13.9114 7.44328C14.5233 7.12688 15.164 6.79558 15.5595 6.79558C15.85 6.79558 15.9474 6.98887 15.9474 7.32992C15.9474 7.66638 15.846 8.11633 15.7438 8.57024C15.6397 9.03223 15.5347 9.49832 15.5347 9.85306C15.5347 10.0228 15.5832 10.2181 15.7771 10.2181C16.0223 10.2181 16.334 9.73541 16.6721 9.21162C17.0733 8.59024 17.5119 7.91099 17.9213 7.91099C18.2591 7.91099 18.2801 8.76285 18.3012 9.62257C18.3227 10.4983 18.3444 11.3822 18.7015 11.3822C19.0023 11.3822 19.184 10.6098 19.3677 9.82937C19.5552 9.03268 19.7446 8.22767 20.0647 8.22767C20.3657 8.22767 20.5891 8.66115 20.8149 9.09931C21.0457 9.54702 21.279 9.99962 21.6002 9.99962C21.8662 9.99962 21.8907 9.65937 21.8907 9.10107V8.2764C21.8907 7.74166 21.9159 7.37864 22.1832 7.37864C22.5955 7.37864 23.4325 8.14921 24.163 8.8218C24.7287 9.34265 25.2306 9.80474 25.4221 9.80474C25.5195 9.80474 25.5443 9.70769 25.5443 9.63421C25.5443 9.35419 25.2895 8.78887 24.9982 8.14251C24.6093 7.27984 24.1555 6.27282 24.1555 5.6071C24.1555 5.21732 24.3025 4.95055 24.6928 4.95055C25.1219 4.95055 25.7923 5.20325 26.4576 5.45408C27.1133 5.70122 27.7641 5.94655 28.1745 5.94655C28.4434 5.94655 28.6133 5.8495 28.6133 5.58273C28.6133 5.06181 27.7998 4.26199 27.024 3.49932L27.024 3.49931C26.3172 2.80436 25.6417 2.14025 25.6417 1.74611C25.6417 0.945804 28.9543 0.120733 31.2191 0.120733C31.5116 0.120733 32.097 0.120733 32.097 0.435026C32.097 0.759092 31.2938 1.05828 30.4427 1.37529C29.7016 1.65131 28.9243 1.94084 28.6093 2.27207C28.5203 2.36472 28.463 2.46815 28.4674 2.57318C28.4881 3.10255 29.3515 3.95679 30.2703 4.86589C31.3297 5.91414 32.4629 7.03533 32.4629 7.81554C32.4629 8.13183 32.1964 8.37384 31.7548 8.37384C31.0441 8.37384 29.9056 7.99076 28.8596 7.63881C27.9708 7.33974 27.1488 7.06315 26.7128 7.06315C26.4447 7.06315 26.373 7.13663 26.373 7.37904C26.373 7.80178 26.7515 8.6426 27.1615 9.5533C27.6459 10.6291 28.1741 11.8024 28.1741 12.4992C28.1741 12.839 28.0527 13.107 27.7121 13.107C27.1296 13.107 26.1686 12.284 25.2681 11.5129C24.4744 10.8331 23.7277 10.1937 23.3288 10.1937C22.9319 10.1937 22.8249 10.8276 22.7197 11.4508C22.618 12.0531 22.518 12.6454 22.1595 12.6454C21.8734 12.6454 21.6047 12.3078 21.3305 11.9632C21.0447 11.6042 20.753 11.2376 20.4293 11.2376C20.1484 11.2376 19.9106 12.1923 19.646 13.2548C19.3138 14.5883 18.9394 16.0918 18.3841 16.0918C17.7402 16.0918 17.5911 14.7302 17.4571 13.5066C17.3478 12.5081 17.2485 11.6014 16.8987 11.6014C16.6229 11.6014 16.3033 11.913 15.9526 12.2548C15.5264 12.6703 15.0543 13.1306 14.559 13.1306C14.0725 13.1306 13.9263 12.7424 13.9263 12.1849C13.9263 11.8226 13.984 11.3905 14.0402 10.9703L14.0402 10.9702C14.0933 10.5725 14.145 10.1854 14.145 9.87822C14.145 9.53796 14.1206 9.15019 13.8036 9.15019C13.3909 9.15019 12.4788 9.65341 11.4894 10.1993C10.3168 10.8462 9.03564 11.5531 8.34843 11.5531C8.08196 11.5531 7.88682 11.4313 7.88682 11.1641C7.88682 10.5149 9.12691 9.15745 10.2536 7.9242C11.1914 6.89767 12.0506 5.95717 12.0506 5.58273C12.0506 5.20274 10.8369 5.18728 9.63356 5.17196ZM15.5222 3.28172C15.178 3.34035 14.8443 3.39718 14.5842 3.39718C14.3413 3.39718 14.1466 3.3245 14.1454 3.15597C14.1454 2.93327 14.6146 2.76152 15.1433 2.56801C15.8253 2.3184 16.6061 2.0326 16.6061 1.55455C16.6061 1.05441 16.1613 0.913423 15.8265 0.807316C15.6245 0.743295 15.4625 0.691971 15.4625 0.582115C15.4625 0.364067 16.3621 0.193142 17.3362 0.193142C18.1876 0.193142 18.4996 0.575177 18.7931 0.934494C19.0536 1.25347 19.2995 1.55455 19.8951 1.55455C20.4638 1.55455 20.7189 1.26806 20.9908 0.962758C21.3008 0.614547 21.6327 0.241864 22.4765 0.241864C23.4746 0.241864 24.2051 0.387629 24.2051 0.533394C24.2051 0.670401 24.0121 0.752305 23.7814 0.850241C23.4384 0.995814 23.012 1.17681 23.0118 1.62683C23.0118 2.02704 23.6246 2.39289 24.1982 2.7354C24.7031 3.0368 25.1776 3.32013 25.1776 3.59286C25.1776 3.76259 25.0313 3.81051 24.8855 3.81051C24.6948 3.81051 24.4308 3.73787 24.1469 3.65971C23.8163 3.56872 23.4586 3.47026 23.1577 3.47026C22.7682 3.47026 22.4757 3.66475 22.4757 4.07768C22.4757 4.44164 22.6857 4.91096 22.8806 5.3464C23.0492 5.72321 23.2065 6.07464 23.2065 6.31048C23.2065 6.48061 23.0851 6.60161 22.9385 6.60161C22.6738 6.60161 22.3994 6.21838 22.0991 5.79891C21.7361 5.29184 21.3352 4.73183 20.8676 4.73183C20.2971 4.73183 20.1314 5.53204 19.9806 6.26042C19.8547 6.86881 19.7391 7.42708 19.4067 7.42708C19.1072 7.42708 19.0887 6.93187 19.0674 6.36229C19.0386 5.5914 19.0047 4.68431 18.2622 4.68431C17.8276 4.68431 17.3774 5.07032 16.9796 5.41139C16.6648 5.68133 16.3828 5.92311 16.1674 5.92311C16.0455 5.92311 15.9241 5.87399 15.9241 5.72822C15.9241 5.49898 16.2174 5.13448 16.5272 4.7496C16.8735 4.31916 17.2404 3.86323 17.2404 3.54254C17.2404 3.22705 16.9235 3.15477 16.5821 3.15477C16.2675 3.15477 15.8888 3.21927 15.5222 3.28172ZM32.1708 4.39266C31.4636 4.39266 29.9293 3.44539 29.9293 3.00889C29.9293 2.71736 30.9531 2.49931 31.7569 2.49891C32.3908 2.49891 32.7061 2.52328 32.7061 3.2513C32.7061 3.83396 32.5839 4.39266 32.1708 4.39266ZM63.0273 16.044C63.0273 15.7529 63.2706 15.1954 64.0756 15.1954C66.2947 15.1954 68.3363 13.7142 68.3367 12.3791C68.3367 11.9906 68.2642 11.8204 68.0935 11.602C69.092 11.7234 69.4839 12.4027 69.4839 13.229C69.4839 15.0005 67.1658 17.0153 64.6358 17.0153C63.6865 17.0153 63.0273 16.7245 63.0273 16.044ZM66.5874 11.6495C66.2158 11.6495 65.7924 11.8097 65.3364 11.9822C64.8039 12.1836 64.2268 12.4019 63.6354 12.4019C63.2944 12.4019 62.8572 12.4019 62.4425 12.2809C62.6994 12.4767 62.7686 12.8223 62.8364 13.1609C62.8779 13.368 62.9189 13.5725 63.0019 13.7386C63.2703 14.2713 63.7584 14.2713 64.099 14.2713C65.1236 14.2713 67.2882 13.3983 67.2866 12.3284C67.2874 11.9898 67.1175 11.6495 66.5874 11.6495ZM56.2258 80.8873C56.2258 79.4248 57.006 78.1916 58.0655 78.1916C58.7066 78.1916 58.939 78.8282 58.9402 79.6037C58.9402 82.5326 56.8253 87.9771 53.7082 87.9771C52.2362 87.9771 51.7602 86.3911 51.4057 85.21C51.1954 84.5093 51.0279 83.9511 50.7205 83.9511C50.4341 83.9511 50.1126 84.3441 49.6693 84.8859C48.6858 86.0881 47.1028 88.023 43.9735 88.023C43.235 88.023 42.4568 87.6572 41.8153 86.9231C40.7161 87.6572 39.7945 87.9771 38.7387 87.9771C37.7008 87.9771 37.0222 87.327 36.4949 86.8219C36.1597 86.5008 35.8856 86.2383 35.6192 86.2383C35.3263 86.2383 35.0223 86.4618 34.6296 86.7507C33.9127 87.2781 32.8999 88.023 31.1188 88.023C29.7372 88.023 29.0775 86.8725 28.5856 86.0146C28.2932 85.5047 28.06 85.0981 27.7697 85.0981C27.4683 85.0981 27.0972 85.6562 26.6791 86.2849C26.1402 87.0953 25.5233 88.023 24.8775 88.023C23.8814 88.023 23.2903 86.6721 22.7179 85.364C22.1806 84.1362 21.6597 82.946 20.8359 82.946C20.1624 82.946 18.7524 84.2666 17.376 85.5559C16.033 86.8138 14.722 88.0418 14.1582 87.9838C13.6994 87.9363 13.5062 87.5949 13.5539 87.1372C13.6016 86.6721 13.9092 85.6349 14.157 84.7992L14.1571 84.799C14.2467 84.4967 14.3285 84.2208 14.3874 84.0079C14.5242 83.495 14.6568 82.9639 14.7793 82.4734L14.7794 82.4733C14.9892 81.6332 15.1692 80.9123 15.2894 80.6057C15.4781 80.1141 15.9878 79.7643 16.3969 79.8022C16.589 79.8197 16.6554 80.1535 16.7154 80.455L16.7287 80.5215C16.9603 81.6532 17.2841 82.8062 17.6487 82.8062C17.9191 82.8062 18.4504 82.0908 19.0675 81.2598C19.9227 80.1082 20.9429 78.7343 21.6626 78.7343C22.3631 78.7343 22.7789 80.0995 23.2266 81.5695C23.7488 83.2839 24.3144 85.1408 25.4256 85.1408C26.116 85.1408 26.6225 84.3181 27.0801 83.3094C27.1262 81.6145 27.5854 79.194 28.9618 79.194C29.9271 79.194 30.3864 81.3425 29.6955 83.2211C29.6939 85.4603 31.1609 86.0094 32.1278 86.0094C32.8154 86.0094 33.9987 85.7878 34.93 84.3006C34.3974 83.1225 34.0175 80.7411 33.9647 79.8733C33.691 75.4389 35.4048 71.2668 37.2817 71.1514C38.6573 71.0679 39.7581 72.3666 39.8847 74.4696C40.1681 79.0959 38.9201 81.4661 37.9633 83.2832C37.7773 83.6365 37.6022 83.9689 37.4516 84.293C37.6083 85.0645 38.9222 86.378 40.1612 86.378C40.6184 86.378 41.1709 86.1492 41.3108 85.9631C41.2182 85.6456 41.1245 85.2351 41.1245 84.6376C41.1245 81.4364 43.1909 78.7351 44.9812 78.7351C46.4037 78.7351 47.2304 80.6109 47.2304 81.8489C47.2304 83.3102 45.9898 84.503 44.1554 85.646C44.478 85.9643 45.071 86.1959 45.5791 86.1959C48.1969 86.1959 49.5673 83.0386 50.5815 80.1549C50.7646 79.6041 51.0868 78.8286 51.7287 78.8286C52.2101 78.8286 52.5693 80.2083 52.9739 81.7622C53.4953 83.7651 54.0921 86.0573 55.1231 86.0573C55.9057 86.0573 56.5476 84.4543 56.5476 83.2227C56.5476 82.8072 56.4814 82.5613 56.409 82.2925C56.3219 81.969 56.2258 81.6124 56.2258 80.8873ZM36.1677 79.8318C36.2867 81.7982 36.5801 82.1009 36.8541 82.0814C37.3602 82.051 38.5736 78.5395 38.3973 75.7064C38.3175 74.4273 38.007 73.8502 37.3174 73.8977C36.4042 73.9524 35.981 76.8182 36.1677 79.8318ZM42.9172 82.8545C42.9172 84.0027 43.3255 84.547 43.5127 84.7802C44.841 84.3661 45.2116 83.2654 45.2116 82.3505C45.2116 81.5758 44.7953 80.9348 44.2948 80.9348C43.8773 80.9348 42.9172 81.3909 42.9172 82.8545ZM27.9056 73.8417C27.9617 74.5969 28.4081 75.2163 29.2848 75.2163C30.2906 75.2179 31.0251 74.0746 30.9329 73.0199C30.868 72.2862 30.2906 71.7862 29.51 71.7862C28.6393 71.7866 27.819 72.6976 27.9056 73.8417ZM9.68444 75.5113C9.45483 73.9825 10.2566 72.9758 10.9931 72.7461C11.819 72.5153 12.142 72.9294 12.4621 73.8899C12.8753 75.3535 12.9217 77.272 12.7823 80.0184C12.6016 83.7696 10.7191 88.2999 6.03802 88.206C1.99691 88.1173 0.209357 85.5096 0.0234294 81.5296C-0.0643251 79.6534 0.06991 77.7792 0.849283 75.1263C1.26321 73.7058 1.63146 73.2006 2.91492 72.929C3.92269 72.7449 3.83214 73.7956 3.60413 75.0352C3.10165 77.7792 2.86764 79.1027 3.05356 82.2149C3.23348 85.5096 4.75135 86.7911 6.40386 86.7911C8.88263 86.8386 9.98377 84.7803 10.445 81.8031C10.8092 79.425 10.5343 78.2816 10.3019 77.5516C10.268 77.4436 10.2172 77.3009 10.1587 77.1368L10.1586 77.1366C9.99154 76.6673 9.76191 76.0225 9.68444 75.5113ZM72.3692 83.1351C73.1385 81.2546 74.4861 77.9609 77.5697 77.9609C79.0371 77.9609 80 78.782 80 79.8363C80 80.5711 79.451 81.2117 78.6728 81.2117C77.6681 81.2117 77.4262 80.7539 77.2366 80.395C77.1144 80.1636 77.0139 79.9733 76.7446 79.9733C75.1016 79.9733 73.8622 82.7922 72.6356 85.5821C72.4909 85.9112 72.3464 86.2399 72.2015 86.5634C71.6505 87.7959 71.3267 88.0251 70.8699 88.0251C70.0287 88.0251 69.6571 86.3423 69.3385 84.8998C69.2208 84.3669 69.1104 83.8668 68.9862 83.4964C68.0225 85.5535 66.1861 88.0251 63.1555 88.0251C61.4125 88.0251 59.6734 87.1094 59.6734 84.3215C59.6734 81.2117 61.6889 78.9681 63.7542 78.9681C65.3157 78.9681 66.3712 80.5719 66.3712 81.7137C66.3712 83.8187 64.467 84.5207 63.2725 84.9611C62.7266 85.1624 62.3289 85.309 62.3289 85.5099C62.3289 86.1046 63.3847 86.335 63.9802 86.335C66.5531 86.335 68.2781 82.8754 68.8472 80.5224C68.9461 80.1143 69.306 79.2409 70.0409 79.2425C70.4215 79.2425 70.5498 80.3332 70.6885 81.5127C70.8517 82.901 71.0294 84.4121 71.6501 84.4121C71.8467 84.4121 72.0618 83.8864 72.3692 83.1351ZM64.1657 82.6274C64.3973 81.9381 64.1204 80.7999 63.1547 80.7999C61.4117 80.7999 61.5503 83.633 61.8264 84.3203C63.1107 84.093 63.9357 83.3123 64.1657 82.6274ZM69.4576 15.413C68.3352 17.6713 65.392 18.1326 64.4403 18.0352C64.7589 20.3402 68.2635 23.4484 69.2127 23.3753C69.849 23.3218 70.0915 20.365 70.0915 18.0352C70.0915 17.9271 70.092 17.8209 70.0926 17.7169V17.715V17.7131V17.7113V17.7094V17.7077V17.7059V17.7042V17.7025V17.7009V17.6993V17.6977V17.6962V17.6947V17.6932V17.6918V17.6904V17.689C70.0984 16.5218 70.1028 15.6344 69.4576 15.413ZM13.6834 43.7643C12.1246 43.6672 11.4923 43.5219 10.9081 42.3086C9.57513 44.9522 10.8594 46.1111 12.0945 47.2255C13.275 48.2906 14.4105 49.3152 13.1725 51.5569C13.0581 51.3534 12.7493 51.1483 12.3491 50.8825C11.1283 50.0716 9.05681 48.6957 9.05681 45.0761C9.05681 42.5513 10.4078 40.6641 11.4665 39.1852C12.1486 38.2326 12.7092 37.4493 12.7092 36.7743C12.7092 36.4349 12.589 36.1437 12.2721 35.8766C11.9543 35.6075 11.7583 35.3579 11.5984 35.1544C11.3533 34.8424 11.1932 34.6386 10.8103 34.6386C10.3483 34.6386 9.7861 35.7056 10.3707 36.6525C10.4071 36.711 10.4426 36.7654 10.4762 36.817C10.6242 37.0437 10.737 37.2164 10.737 37.4536C10.737 38.1325 9.66468 39.9524 8.91015 39.9524C8.15483 39.9524 7.5714 38.0862 7.5714 35.0743C7.5714 32.403 8.17927 29.7101 8.9346 29.7101C9.15298 29.7101 9.22671 29.8555 9.22671 30.0504C9.22671 30.1616 9.21463 30.3118 9.19898 30.5064C9.17019 30.8643 9.12934 31.3723 9.12934 32.0643C9.12934 33.2053 9.39701 33.3031 9.6166 33.3031C9.98048 33.3031 10.1513 32.3256 10.3426 31.2307C10.5862 29.837 10.8629 28.2532 11.6133 28.2532C11.9307 28.2532 12.028 28.5687 12.028 28.9573C12.028 29.558 11.8726 30.3072 11.7254 31.0165L11.7254 31.0165C11.5931 31.654 11.4675 32.2592 11.4675 32.6953C11.4675 33.1569 11.5897 33.3031 11.8089 33.3031C12.0628 33.3031 12.3988 32.2573 12.7794 31.0729C13.2764 29.5263 13.8494 27.7433 14.4146 27.7433C14.7312 27.7433 14.8775 28.0588 14.8775 28.3747C14.8775 28.9876 14.4667 30.2048 14.0773 31.3587C13.7264 32.3986 13.3928 33.3872 13.3928 33.8359C13.3928 33.982 13.4405 34.1026 13.5627 34.1026C14.1722 34.1026 15.3892 31.482 15.7786 30.1714C15.9982 29.4913 16.2907 29.1262 16.5588 29.1262C16.802 29.1262 17.022 29.3942 17.022 29.9529C17.022 31.2636 15.8031 34.3462 14.7312 36.4105C14.6369 36.5932 14.5366 36.7851 14.4329 36.9836L14.4324 36.9844C13.6267 38.5256 12.6135 40.4636 12.6135 41.6033C12.6135 42.2595 12.7333 42.9388 13.6834 43.7643ZM15.6316 38.9581C15.279 38.9581 15.0903 38.757 14.9503 38.6077C14.8677 38.5197 14.802 38.4497 14.7296 38.4497C14.5838 38.4497 14.5104 38.8862 14.5104 39.0072C14.5116 39.9049 15.17 40.4149 15.8271 40.4149C16.8513 40.4149 17.7024 39.6609 17.7024 37.9888V35.512C17.7024 34.5652 17.7758 33.4981 18.4101 32.7437C18.3368 33.0604 18.3368 33.4002 18.3368 33.7157C18.3368 34.7692 18.6341 35.6559 18.9287 36.5345C19.218 37.3974 19.5048 38.2527 19.5048 39.2508C19.5048 40.002 19.2856 40.4157 18.7026 40.4157C18.3206 40.4157 18.2216 40.179 18.1585 40.0281C18.129 39.9575 18.1074 39.9057 18.0683 39.9057C17.9717 39.9057 17.8251 40.2208 17.8251 40.5611C17.8251 41.0711 18.1905 41.8718 19.2131 41.8718C20.0902 41.8718 20.7959 41.0711 20.7959 40.1725C20.7959 39.0989 20.3835 37.9657 19.9644 36.814C19.5314 35.6243 19.0913 34.4148 19.0913 33.2309C19.0913 32.2109 19.3586 31.532 19.5785 30.9965C19.5785 33.9324 21.0981 36.3839 22.2905 38.3074C23.0604 39.5494 23.6938 40.5713 23.6938 41.3614C23.6938 41.8231 23.3532 42.1881 22.8419 42.1881C22.2821 42.1881 22.0136 41.75 22.0136 41.4097C22.0136 41.24 21.9888 41.1921 21.9163 41.1921C21.7708 41.1921 21.332 41.6773 21.332 42.3099C21.332 43.1098 21.9888 44.0822 23.2073 44.0822C24.5938 44.0822 25.3499 42.9157 25.3499 41.8722C25.3499 40.751 24.3832 39.3756 23.3006 37.8353C21.9229 35.8753 20.3575 33.6482 20.3575 31.338C20.3575 30.6335 20.4781 29.4925 20.9906 28.6191C17.7742 30.6806 16.776 33.4246 16.776 35.8275C16.776 37.9158 16.7035 38.9581 15.6316 38.9581ZM61.858 15.9713C61.858 17.2093 59.9863 17.9625 57.7684 17.9625C54.5315 17.9625 52.5805 15.1466 52.5805 13.3255C52.5813 13.1802 52.6542 13.1311 52.7264 13.0827C52.8286 13.0146 53.0465 13.0046 53.3564 12.9904C53.9859 12.9615 54.995 12.9152 56.1845 12.3292C56.4036 12.2101 56.6228 12.161 56.8172 12.161C57.2541 12.161 57.4101 12.4147 57.5626 12.6626C57.7082 12.8995 57.8507 13.1311 58.2317 13.1311C58.5565 13.1311 58.9306 12.9856 59.2794 12.8501C59.5837 12.7318 59.8687 12.6211 60.0845 12.6211C60.8106 12.6211 61.858 14.9034 61.858 15.9713ZM55.8361 14.6091C55.5499 14.5139 55.3344 14.4421 55.2087 14.4421C55.111 14.4421 55.0625 14.4901 55.0617 14.5628C55.0617 15.1949 56.2317 16.1654 58.0365 16.1654C59.1092 16.1654 59.913 15.6794 59.913 15.3874C59.913 15.292 59.7672 15.2189 59.4502 15.2189C59.1336 15.2189 58.4993 15.1953 57.3052 15C56.7208 14.9035 56.2161 14.7355 55.8361 14.6091ZM21.0148 59.0582C24.5703 59.0582 25.4478 56.6058 25.4478 54.9541C25.4478 51.29 23.1838 48.7157 20.2374 48.7157C18.6294 48.7157 17.1921 49.8814 17.1921 51.6039C17.1921 53.2081 18.4102 55.6098 21.3073 55.6098C22.6713 55.6098 23.4747 54.637 23.4747 53.5236C23.4747 52.4305 22.4766 50.9262 21.0148 50.9262C20.5768 50.9262 20.2611 51.2153 20.2611 51.6785C20.2611 52.2592 21.0629 52.8435 22.063 52.8435C22.3055 52.8435 22.501 52.7947 22.5992 52.7456C22.6473 52.8207 22.6717 52.9401 22.6717 53.0379C22.6717 53.5962 22.136 53.9369 21.3077 53.9369C20.0655 53.9369 18.8722 53.0144 18.8722 51.5555C18.8722 50.6829 19.6276 50.0528 20.7235 50.0528C22.8901 50.0528 24.1808 51.9693 24.1808 53.8882C24.1808 55.6106 23.2323 56.6074 21.2837 56.6074C17.3852 56.6074 15.4875 53.1106 16.3386 49.5663C15.5355 49.7608 14.2433 51.0216 14.2433 53.014C14.2429 55.3914 16.8014 59.0582 21.0148 59.0582ZM31.0241 60.6842C31.9017 60.6842 33.0216 60.3192 33.1923 58.8879C36.1151 58.6459 38.0894 56.9231 38.5029 54.737C39.5491 55.0772 40.7428 56.0241 41.035 56.5101C41.4489 56.366 41.9357 56.2917 42.4959 56.2917C43.2745 56.2917 44.1528 56.4374 45.1991 56.7533L45.2023 56.7327C45.2503 56.4208 45.3074 56.0497 45.7845 56.0497C46.2825 56.0497 46.3506 56.422 46.4205 56.8042L46.4205 56.8043L46.4205 56.8043L46.4205 56.8043L46.4205 56.8044L46.4205 56.8044L46.4205 56.8044L46.4206 56.8045L46.4206 56.8045L46.4206 56.8046L46.4206 56.8046L46.4206 56.8046L46.4206 56.8047L46.4206 56.8047L46.4206 56.8047L46.4206 56.8048L46.4207 56.8048L46.4207 56.8048L46.4207 56.8049C46.4532 56.9828 46.4861 57.1629 46.5631 57.3084C46.6075 57.3968 46.7162 57.4722 46.8368 57.5557C47.0479 57.7021 47.2952 57.8735 47.2952 58.1834C47.2952 58.6459 46.9025 58.8168 46.6605 58.8168C46.5627 58.8168 46.4413 58.7929 46.3671 58.7685C46.2129 58.8224 46.1051 59.2097 45.9648 59.7138C45.6621 60.8012 45.208 62.4322 43.8106 62.4322C42.3008 62.4322 40.9123 61.1946 40.3025 59.6419C40.133 59.1798 39.7679 58.8879 39.4257 58.8879C39.037 58.8879 38.817 58.9626 38.3558 59.4714C37.0411 60.9027 34.8485 62.1407 32.1449 62.1407C31.5752 62.1407 31.0865 62.1052 30.7813 62.083L30.781 62.083L30.7809 62.083C30.6424 62.0729 30.5417 62.0656 30.4884 62.0656C30.3894 62.0656 30.3894 62.0899 30.3894 62.1147C30.3894 62.2836 31.2173 62.9406 33.0201 62.9406C36.0859 62.9406 37.4957 61.7113 38.2991 61.0108C38.6192 60.7316 38.843 60.5364 39.037 60.5364C39.136 60.5364 39.4257 60.5364 39.5964 60.9262C40.5966 63.2549 42.7772 63.7896 44.1412 63.7896C44.8903 63.7896 45.1341 63.7496 45.3091 63.7208C45.4071 63.7047 45.4836 63.6922 45.615 63.6922C45.9793 63.6922 46.0041 63.9118 46.0041 64.0568C46.0041 64.5915 44.81 65.2465 42.6907 65.2465C41.4493 65.2465 40.6932 64.5903 40.4748 63.8635C39.2578 64.6394 37.407 65.3431 35.5793 65.3431C31.8644 65.3431 30.2127 64.1464 28.9679 63.2445C28.5402 62.9346 28.1605 62.6595 27.7616 62.4797C27.4093 62.3221 27.0019 62.3018 26.5371 62.2786C25.4261 62.2231 23.9864 62.1512 22.1834 60.1491C22.5248 60.2222 22.988 60.2457 23.3526 60.2457C25.5926 60.2457 26.7859 59.1563 26.7859 57.4075C26.7859 57.1874 26.761 56.9478 26.737 56.7298C27.4198 56.9965 28.9789 58.1603 29.3452 60.2234C29.3921 60.4658 30.3906 60.6842 31.0241 60.6842ZM44.2017 58.9386C44.2017 58.4027 43.7642 57.9654 43.228 57.9654C42.6911 57.9654 42.2523 58.4027 42.2519 58.9386C42.2519 59.473 42.6911 59.9107 43.228 59.9107C43.7642 59.9107 44.2017 59.473 44.2017 58.9386ZM64.9539 50.1475C64.9539 47.1391 62.7584 45.8021 60.7861 45.8021C58.976 45.8021 58.3191 46.6039 57.5695 47.5187C56.8375 48.4122 56.0172 49.4135 53.9481 49.8811C53.1663 50.0524 52.9479 50.2952 52.9479 50.6359C52.9479 51.2645 53.3134 52.0895 53.7517 52.0895C54.9429 52.0895 56.5638 50.483 57.6871 49.3696L57.6871 49.3696C58.2828 48.7793 58.7385 48.3276 58.916 48.3276C59.1104 48.3276 59.3544 48.35 59.3548 48.8611C59.3548 49.5985 58.195 50.4634 57.1325 51.2557C56.2344 51.9254 55.4059 52.5432 55.4059 52.9885C55.4059 53.5735 56.7951 54.8084 58.1607 54.8084C59.5159 54.8084 60.7758 52.9127 61.5671 51.7222C61.9293 51.1772 62.1933 50.78 62.3233 50.78C62.6402 50.78 62.7616 51.0209 62.7616 51.2641C62.7616 52.3563 61.4233 54.4933 59.0876 55.4158C58.6011 55.6103 58.5274 55.8287 58.5274 55.9988C58.5274 56.5332 59.1368 57.3335 59.6974 57.3335C60.3778 57.3323 64.9539 53.3523 64.9539 50.1475ZM62.4182 49.2757C62.1522 49.2757 61.8845 49.1786 61.7122 49.0796C61.3968 48.9362 60.8354 48.4722 60.8354 47.7469C60.8354 47.0896 61.2001 46.8232 61.5423 46.8232C62.5869 46.8232 63.6861 47.7469 63.6869 48.4961C63.6869 49.0796 63.1255 49.2757 62.4182 49.2757ZM18.6282 24.297C18.6282 25.3401 18.0676 26.3597 16.8743 26.3597C15.6325 26.3597 14.8275 25.2679 14.8279 23.9572C14.8279 22.8657 15.3881 21.797 15.9238 21.1665C17.1424 21.5287 18.6282 22.6708 18.6282 24.297ZM8.6431 28.3996C9.42247 28.3996 10.4695 27.8409 11.7109 26.7726C10.7616 26.9915 10.0295 27.1372 9.37278 27.1372C8.49603 27.1372 7.81484 26.797 7.08355 25.6808C7.08355 27.5246 7.64494 28.3996 8.6431 28.3996ZM13.7084 26.6517C12.8557 26.6517 12.1745 26.0922 12.1745 25.2188C12.1745 24.0052 13.3417 23.3255 13.9039 23.1801C13.8058 23.4717 13.7332 23.7863 13.7332 24.2971C13.7332 25.0243 13.9773 25.7532 14.6585 26.4085C14.4637 26.5539 14.1472 26.6517 13.7084 26.6517ZM13.6105 14.5625C13.6105 13.398 13.074 11.6257 11.4179 11.6257C10.469 11.6257 9.78581 12.378 9.78581 13.2766C9.78581 15.1947 11.7108 15.9707 13.3922 15.9707C13.5132 15.5821 13.6105 15.0981 13.6105 14.5625ZM10.7127 16.5057C10.7127 16.5057 10.0066 17.0384 9.12949 17.0384C8.08325 17.0384 7.25419 16.2625 7.25499 15.1694C7.25499 14.4166 7.64528 13.6403 8.54566 13.2513C8.52162 13.3979 8.52162 13.5181 8.52162 13.6642V13.6642C8.52082 15.0492 9.30019 16.0919 10.7127 16.5057ZM15.7535 15.5577C15.2181 15.5577 14.7802 15.9958 14.7802 16.529C14.7802 17.0629 15.2181 17.501 15.7535 17.501C16.2896 17.501 16.7288 17.0637 16.7288 16.529C16.7288 15.9958 16.29 15.5577 15.7535 15.5577ZM17.0219 19.6853C16.4854 19.6853 16.0458 19.2476 16.0458 18.7137C16.0458 18.1802 16.485 17.7433 17.0219 17.7433C17.5565 17.7433 17.996 18.1806 17.996 18.7137C17.996 19.2476 17.5565 19.6853 17.0219 19.6853ZM7.9368 23.5202C7.91276 23.6428 7.91276 23.7634 7.91276 23.8844C7.91276 25.025 8.52064 25.6567 9.32445 25.6567C9.93112 25.6567 10.6392 25.2929 11.2711 24.491C11.0042 24.5389 10.6873 24.5637 10.3943 24.5637C9.49475 24.5633 8.52103 24.3217 7.9368 23.5202ZM14.3867 17.7946C14.4216 17.9756 14.4634 18.1918 14.6329 18.4223C14.7584 18.5939 14.894 18.6863 15.0109 18.7659C15.1832 18.8832 15.315 18.9729 15.3145 19.2482C15.3145 19.6128 14.6317 21.7729 12.8778 22.6479C12.0507 23.0589 11.392 23.2294 10.8326 23.2294C10.3009 23.2294 9.86057 23.1 9.47336 22.9862L9.47334 22.9862C9.16951 22.8969 8.8984 22.8172 8.64153 22.8172C8.60125 22.8172 8.55678 22.8255 8.50464 22.8352L8.50461 22.8352C8.43073 22.849 8.34144 22.8656 8.2268 22.8656C8.00922 22.8656 7.76519 22.6228 7.76519 22.4043C7.76519 22.3073 7.79284 22.2114 7.83932 22.1367C7.92953 21.9886 7.9739 21.723 8.02994 21.3876C8.18498 20.4596 8.4293 18.9973 9.98069 18.0102C11.0498 17.3313 12.0026 17.2326 12.8053 17.2326C13 17.2326 13.1955 17.2414 13.3414 17.2574C13.4304 17.2672 13.5157 17.2754 13.596 17.2831L13.5971 17.2832L13.5972 17.2832C13.9139 17.3134 14.1539 17.3363 14.243 17.4267C14.333 17.5168 14.3575 17.6435 14.3867 17.7946ZM9.64049 20.1947C9.64049 21.0936 10.5172 22.0884 11.3206 22.0884C11.7594 22.0884 12.2226 21.8456 12.2226 21.6751C12.2226 21.6326 12.1857 21.6089 12.1274 21.5715L12.1004 21.5541C11.3699 21.2154 10.5898 20.5349 10.4435 19.346C10.4199 19.1755 10.3706 19.102 10.2732 19.102C10.0059 19.102 9.64049 19.7099 9.64049 20.1947ZM12.0772 18.5673C12.0772 19.2969 12.7588 20.5836 13.6115 20.5836C14.0006 20.5836 14.1969 20.146 14.1965 19.8073C14.1965 19.7075 14.0355 19.5689 13.8684 19.425C13.7514 19.3243 13.6314 19.221 13.5618 19.1268C13.4342 18.9534 13.3673 18.7528 13.3087 18.5771C13.2442 18.3836 13.1898 18.2202 13.0753 18.1564C12.9539 18.0837 12.8798 18.0593 12.7099 18.0593C12.3452 18.0593 12.0772 18.1072 12.0772 18.5673ZM46.0532 25.1942C45.2971 25.1942 44.6656 25.8264 44.6656 26.578C44.6656 27.3312 45.2971 27.9614 46.0532 27.9614C46.807 27.9614 47.4425 27.3312 47.4425 26.578C47.4425 25.8264 46.807 25.1942 46.0532 25.1942ZM53.6532 24.5628C53.6532 24.0049 54.1172 23.5445 54.6714 23.5445C55.2324 23.5445 55.6964 24.0049 55.6968 24.5628C55.6968 25.1223 55.2324 25.5832 54.6714 25.5832C54.1172 25.5832 53.6532 25.1223 53.6532 24.5628ZM52.2641 19.5401C52.2641 20.0485 52.678 20.4618 53.1909 20.4618C53.7038 20.4618 54.1177 20.0489 54.1177 19.5401C54.1177 19.0293 53.703 18.6168 53.1909 18.6168C52.6788 18.6168 52.2641 19.0293 52.2641 19.5401ZM45.4922 23.1564C45.4922 22.6233 45.9314 22.186 46.4655 22.186C47.0032 22.186 47.4424 22.6229 47.4424 23.1564C47.4424 23.6899 47.004 24.1272 46.4655 24.1272C45.9314 24.1272 45.4922 23.6899 45.4922 23.1564ZM54.8682 26.4816C54.2391 26.4816 53.7266 26.9915 53.7266 27.6213C53.7266 28.2535 54.2387 28.7639 54.8682 28.7639C55.5021 28.7639 56.013 28.2539 56.013 27.6213C56.0134 26.9911 55.5021 26.4816 54.8682 26.4816ZM52.0956 27.2346C51.5575 27.2346 51.1187 26.7969 51.1187 26.2626C51.1187 25.7298 51.5571 25.2921 52.0956 25.2925C52.631 25.2925 53.0694 25.7294 53.0694 26.2626C53.0694 26.7969 52.631 27.2346 52.0956 27.2346ZM50.4362 22.5263C50.4362 23.375 51.143 24.0782 51.9965 24.0782C52.8497 24.0782 53.5577 23.375 53.5577 22.5263C53.5577 21.6753 52.8505 20.9724 51.9965 20.9724C51.1426 20.972 50.4362 21.6749 50.4362 22.5263ZM48.7786 22.7933C48.2722 22.7933 47.8574 22.3795 47.8574 21.8688C47.8574 21.36 48.2722 20.947 48.7786 20.947C49.2895 20.947 49.7051 21.3604 49.7051 21.8688C49.7051 22.3795 49.2895 22.7933 48.7786 22.7933ZM51.8994 31.3606C52.825 31.3606 53.582 30.6074 53.582 29.6853C53.582 28.7636 52.8242 28.0104 51.8994 28.0104C50.9726 28.0104 50.2172 28.7636 50.2172 29.6853C50.2168 30.6074 50.9722 31.3606 51.8994 31.3606ZM54.0438 30.6328C54.0438 30.1476 54.483 29.735 54.9635 29.735C55.5012 29.735 55.9151 30.148 55.9151 30.6328C55.9151 31.1911 55.5004 31.58 54.9635 31.58C54.483 31.58 54.0438 31.1907 54.0438 30.6328ZM47.9295 28.2048C47.9295 28.7391 48.3686 29.1748 48.9004 29.1748C49.4365 29.1748 49.8761 28.7391 49.8761 28.2048C49.8761 27.6704 49.4365 27.2339 48.9004 27.2339C48.3682 27.2339 47.9295 27.6708 47.9295 28.2048ZM49.2163 23.5445C50.0453 23.5445 50.7049 24.1998 50.7049 25.0245C50.7049 25.8508 50.0449 26.5053 49.2163 26.5053C48.3932 26.5053 47.7352 25.8512 47.7352 25.0245C47.7352 24.1994 48.3928 23.5445 49.2163 23.5445ZM49.4607 57.5757C49.217 57.5757 48.9494 57.8177 48.6813 58.1344C48.1027 58.8145 47.3461 60.0773 47.3461 61.4599C47.3461 62.4303 48.1027 63.3987 49.5091 63.3987C54.0688 63.3987 57.4756 60.5609 57.4756 58.2554C57.4756 56.9463 56.6962 56.4108 56.1336 56.4108C55.5009 56.898 54.0195 57.9879 51.5568 57.9879C50.6061 57.9887 50.0367 57.7733 49.7204 57.6536C49.5989 57.6076 49.5147 57.5757 49.4607 57.5757ZM54.6714 58.549C54.7949 58.549 54.9391 58.6208 54.9391 59.0581C54.9391 59.5909 54.6971 60.2945 53.8243 60.8512C53.2149 61.2662 52.3854 61.6068 51.1669 61.6276C51.3616 61.0469 51.5091 60.4383 51.5091 59.8588C51.5091 59.7089 51.4945 59.5874 51.4768 59.4396C51.4716 59.3958 51.4661 59.3496 51.4606 59.2997H51.7775C53.2946 59.3013 54.1312 58.8341 54.486 58.636C54.5813 58.5828 54.6419 58.549 54.6714 58.549ZM49.8511 54.9071C49.8511 54.5669 50.802 53.7674 52.5815 53.7674C54.0445 53.7674 55.1112 54.1775 55.1116 54.8824V55.4399C55.1116 55.7086 55.0663 55.9778 54.8688 56.1455C54.2393 56.6799 53.2888 56.947 52.2413 56.947C50.9246 56.947 49.8511 56.4862 49.8511 56.0233V54.9071ZM48.1251 37.2594C48.4172 37.2594 48.5094 37.4531 48.5094 37.5749C48.5094 37.7562 48.3746 37.9883 48.2231 38.249C48.0289 38.5833 47.8073 38.9648 47.8073 39.3468C47.8073 40.1955 48.8019 40.7063 49.4602 40.7063C50.24 40.7063 50.5325 40.4151 50.5325 39.9287C50.5325 39.6316 50.2745 39.2872 50.0117 38.9364C49.7386 38.5719 49.4602 38.2003 49.4602 37.8672C49.4602 37.5026 49.8024 37.4535 50.2656 37.4535C51.241 37.4535 51.6064 37.5997 51.6064 37.8185C51.6064 37.9833 51.4734 38.2186 51.3582 38.4224C51.2701 38.5781 51.1925 38.7154 51.1925 38.7889C51.1925 38.886 51.241 39.0557 51.485 39.0557C52.2892 39.0557 55.0629 38.4978 55.0629 37.9403C55.0629 37.3329 52.4371 35.3417 51.8997 35.3417C51.7775 35.3417 51.7038 35.4387 51.7038 35.5366C51.7038 35.6138 51.714 35.7112 51.7251 35.8173C51.7384 35.9445 51.7531 36.0843 51.7531 36.2171C51.7531 36.6532 51.5812 36.7255 51.0703 36.7255C50.5101 36.7255 49.6566 36.533 49.6566 35.6828C49.6566 34.7976 50.5291 34.4853 51.4101 34.1699C52.221 33.8797 53.0391 33.5868 53.1912 32.8425C52.4259 32.8425 51.8681 32.5555 51.3666 32.2975C50.9572 32.0869 50.5855 31.8957 50.1691 31.8957C49.8024 31.8957 49.1922 32.0889 49.1922 32.9396C49.1922 33.0604 49.2122 33.2259 49.2341 33.4071C49.2607 33.6259 49.2899 33.8675 49.2899 34.0805C49.2899 34.4695 49.1922 34.7598 48.779 34.7598C48.3691 34.7598 48.3202 34.299 48.3202 33.7642C48.3202 33.5209 48.3475 33.2563 48.3731 33.0072C48.396 32.7854 48.4176 32.5758 48.4176 32.404C48.4176 31.0768 47.6338 30.7486 46.8587 30.4241C46.174 30.1374 45.496 29.8535 45.3706 28.8865C44.7123 30.0989 44.4706 30.9731 44.4698 31.6768C44.4698 33.086 45.5171 33.652 46.4751 34.1697C47.2827 34.6062 48.0269 35.0084 48.0269 35.8525C48.0269 36.2898 47.6859 36.5797 47.3677 36.5797C47.1055 36.5797 46.8727 36.3278 46.6152 36.0491C46.2963 35.7039 45.9394 35.3177 45.4416 35.3177C44.9539 35.3177 44.6149 35.6828 44.6149 36.4112C44.6149 36.6962 44.6462 36.9436 44.6768 37.1855C44.7061 37.4168 44.7347 37.6429 44.7347 37.892C44.7347 38.9339 44.2979 39.4439 43.7862 39.9051C45.8452 39.7323 46.6774 38.6819 47.2511 37.9578C47.5669 37.5592 47.8044 37.2594 48.1251 37.2594ZM61.5083 40.9419C61.0401 40.1036 60.238 38.6676 58.9134 38.6676C58.6449 38.6676 58.4498 38.886 58.4494 39.251C58.4494 40.2207 59.3999 41.3377 60.3019 41.8716C60.4568 41.9731 60.651 42.0744 60.8325 42.1691C61.1304 42.3244 61.3942 42.462 61.3942 42.5533C61.3942 42.6796 61.0985 42.7002 60.7651 42.7235C60.3337 42.7536 59.839 42.7881 59.839 43.0613C59.839 43.2869 59.8907 43.5706 59.9407 43.8455L59.9407 43.8456L59.9407 43.8457C59.9878 44.1042 60.0334 44.355 60.0334 44.5425C60.0334 44.6643 60.0085 44.8085 59.8631 44.8085C59.7222 44.8085 59.4852 44.4998 59.2393 44.1793L59.2393 44.1793C58.9739 43.8336 58.6981 43.4742 58.5211 43.4742C58.3727 43.4742 58.135 43.6825 57.9021 43.8866C57.6783 44.0827 57.459 44.2749 57.3274 44.2749C57.2545 44.2749 57.206 44.2019 57.206 44.1304C57.206 43.9059 57.3517 43.568 57.5259 43.1637C57.7854 42.5617 58.1084 41.8124 58.1084 41.0713C58.1084 40.4886 58.0355 39.2263 57.3274 39.2263C56.7428 39.2263 56.0844 40.1484 55.7919 41.0713C55.7282 41.2714 55.7055 41.6865 55.6814 42.1273C55.6413 42.8622 55.5972 43.6683 55.3527 43.6683C55.1833 43.6683 55.1134 43.371 55.0385 43.052C54.9518 42.6831 54.8584 42.2853 54.5962 42.2853C54.4033 42.2853 54.0897 42.4735 53.7989 42.6481C53.5473 42.7991 53.3126 42.9399 53.1877 42.9399C53.1392 42.9399 53.09 42.9155 53.09 42.8672C53.09 42.7076 53.304 42.3492 53.4966 42.0267C53.6543 41.7627 53.7976 41.5227 53.7976 41.4351C53.7976 41.2433 53.3492 41.1391 52.9258 41.0408C52.5471 40.9528 52.1884 40.8695 52.1884 40.7323C52.1884 40.5613 52.8219 40.4407 53.4065 40.3425C54.6447 40.1236 56.4723 39.2263 56.4723 37.9643C56.4723 36.7502 55.4571 36.1314 54.6023 35.6103C54.466 35.5272 54.3337 35.4466 54.2103 35.3665C54.1013 35.2979 53.9897 35.2322 53.8827 35.1691L53.8826 35.1691C53.5347 34.9641 53.2358 34.788 53.2358 34.6393C53.2358 34.4444 53.8204 34.4444 54.0645 34.4444C54.4291 34.4444 54.791 34.42 54.791 34.1293C54.791 34.0319 54.7812 33.8919 54.7704 33.7366L54.7704 33.7361L54.7704 33.7353L54.7703 33.7352C54.7568 33.5409 54.7417 33.3228 54.7417 33.1341C54.7417 32.8905 54.7653 32.6964 54.8643 32.6964C55.0652 32.6964 55.3107 33.0559 55.5316 33.3795C55.7124 33.6444 55.8769 33.8853 55.9871 33.8853C56.1839 33.8853 56.4188 33.6356 56.6504 33.3894L56.6504 33.3894C56.8756 33.1501 57.0976 32.914 57.2785 32.914C57.3991 32.914 57.4492 32.9875 57.4492 33.2052C57.45 33.6582 57.3325 34.1419 57.2157 34.6224C57.1009 35.0949 56.9868 35.5642 56.9868 35.9983C56.9868 36.6037 57.1828 37.3082 57.7922 37.3082C58.3035 37.3082 58.7415 36.533 58.7415 35.6828C58.7415 35.088 58.6776 34.5749 58.6281 34.1773C58.5968 33.9256 58.5712 33.7201 58.5712 33.5694C58.5712 33.4009 58.6453 33.3278 58.7415 33.3278C58.9193 33.3398 59.0909 33.5802 59.2653 33.8245C59.4502 34.0836 59.6382 34.3469 59.8398 34.3469C60.0862 34.3469 60.4003 34.0941 60.6757 33.8724C60.8909 33.6992 61.0825 33.545 61.1998 33.545C61.2728 33.545 61.2968 33.6433 61.2968 33.6668C61.2968 33.8558 61.1464 34.1622 61.0014 34.4574L61.0014 34.4574C60.8666 34.7319 60.7366 34.9966 60.7366 35.1484C60.7366 35.2849 61.1063 35.3641 61.4674 35.4415C61.8121 35.5154 62.1491 35.5876 62.1491 35.7063C62.1491 35.9184 61.6493 36.0073 61.0918 36.1064L61.0918 36.1064C60.6898 36.1779 60.2578 36.2547 59.9617 36.3868C59.2801 36.6776 58.8629 37.0414 58.8629 37.5278C58.8629 38.0134 59.3514 38.1097 60.0342 38.1097C61.1386 38.1097 62.0212 37.7073 62.5883 37.4488C62.8568 37.3264 63.0546 37.2363 63.1717 37.2363C63.2455 37.2363 63.2931 37.2838 63.2931 37.3573C63.2931 37.4666 63.1261 37.6886 62.9421 37.9329C62.7169 38.232 62.4665 38.5647 62.4665 38.7654C62.4665 38.9957 62.9383 39.2485 63.3505 39.4692L63.3505 39.4693C63.6759 39.6436 63.9641 39.7979 63.9535 39.9056C63.9295 39.9783 63.8317 40.0018 63.661 40.0018C63.5318 40.0018 63.3696 39.9851 63.2009 39.9678L63.2004 39.9677L63.2003 39.9677L63.2002 39.9677L63.2001 39.9677C63.0168 39.9488 62.8259 39.9291 62.6608 39.9291C62.4657 39.9291 62.2954 39.9527 62.2208 40.0501C62.1512 40.1302 62.1471 40.3955 62.1428 40.6799C62.1366 41.0861 62.1297 41.5314 61.9303 41.5314C61.8376 41.5314 61.7013 41.2874 61.5084 40.9419L61.5083 40.9419ZM45.5915 54.979C49.9732 54.979 52.0705 51.4595 52.0954 48.7882C51.29 49.5174 49.1205 49.7351 48.0046 49.7351C45.5517 49.7351 44.4214 48.8314 43.8092 48.3419C43.5819 48.1601 43.426 48.0354 43.3003 48.0354C42.8383 48.0354 42.8383 48.7882 42.8383 49.0558C42.8383 49.3226 42.8142 49.42 42.668 49.42C42.5793 49.42 42.4843 49.3937 42.393 49.3685C42.3084 49.3451 42.227 49.3226 42.1567 49.3226C42.0108 49.3226 41.913 49.4448 41.913 49.6628C41.913 50.684 43.2045 51.4336 44.52 51.4336C45.6321 51.4336 46.3711 51.1263 46.8713 50.9183C47.1273 50.8119 47.3207 50.7315 47.4696 50.7315C47.664 50.7315 47.7617 50.9523 47.7617 51.0693C47.7617 51.2188 47.6712 51.3831 47.5909 51.5289C47.527 51.6449 47.4696 51.7491 47.4696 51.8245C47.4696 52.0107 47.6596 52.0357 47.8574 52.0617C48.0724 52.09 48.2967 52.1195 48.2967 52.3585C48.2967 52.9427 47.2981 53.4523 45.7366 53.4523C42.7173 53.4523 40.7201 51.3641 40.7201 49.4476C40.7201 47.2186 42.2074 46.805 43.3499 46.4873C44.0623 46.2892 44.6406 46.1283 44.6406 45.5878C44.6406 45.1018 44.177 44.8817 43.8613 44.8342C44.2996 44.3238 44.835 44.202 45.3719 44.202C45.5892 44.202 45.8 44.2221 46.0004 44.2413C46.1818 44.2586 46.3547 44.2751 46.5159 44.2751C46.98 44.2751 47.468 44.1058 47.468 43.5718C47.468 43.2551 47.1996 42.8674 46.078 42.7212C46.1409 42.3322 46.5958 42.2489 47.02 42.1713C47.415 42.099 47.7834 42.0316 47.7838 41.7268C47.7838 41.2647 46.8802 40.9021 45.8099 40.9021C41.6442 40.9021 38.5996 44.2755 38.5996 47.9887C38.6004 51.3365 41.0363 54.979 45.5915 54.979ZM47.8572 47.3822C47.8572 48.01 47.3932 48.546 46.71 48.546C46.0781 48.546 45.6393 48.0352 45.6393 47.4537C45.6393 47.2409 45.6847 47.0341 45.7285 46.8339C45.7697 46.6461 45.8096 46.4641 45.8096 46.2884C45.8096 46.0456 45.7355 45.802 45.4931 45.5608C46.904 45.5608 47.8572 46.4593 47.8572 47.3822ZM48.73 41.4334C49.071 41.8463 49.1916 42.2593 49.1916 42.6714C49.1916 43.1968 48.9894 43.7282 48.7884 44.2564C48.5899 44.7781 48.3926 45.2965 48.3926 45.8028C48.3926 47.1622 49.2894 48.0112 50.5339 48.0112C51.8995 48.0112 52.6793 46.8718 52.6793 45.6342C52.6781 43.8375 51.2893 41.9198 48.73 41.4334ZM50.5824 45.2696C50.241 45.2696 49.997 45.002 49.997 44.6622C49.997 44.558 50.0319 44.426 50.0683 44.2888C50.0998 44.1697 50.1323 44.0468 50.1441 43.9346C50.1584 43.8398 50.1618 43.7473 50.1649 43.6641V43.664C50.1721 43.4702 50.1774 43.3275 50.314 43.3275C50.7535 43.3275 51.2163 44.0316 51.2163 44.5412C51.2163 44.9294 50.9719 45.2696 50.5824 45.2696ZM56.549 46.5077C56.549 47.4561 55.8666 48.2556 54.8676 48.2556C53.946 48.2556 53.3369 47.6003 53.3357 46.8008C53.3357 46.4448 53.4536 46.1078 53.5705 45.774C53.6852 45.4461 53.7989 45.1212 53.7989 44.784C53.7989 44.5416 53.726 44.2745 53.5553 44.0089C55.3793 44.1291 56.549 45.2205 56.549 46.5077ZM21.0151 18.6891C20.3189 18.6891 20.2113 18.0118 20.1216 17.4476C20.0576 17.0447 20.0027 16.6995 19.7493 16.6995C19.2372 16.6995 19.0914 17.7674 19.0914 18.1803C19.0914 19.5637 19.9925 21.0201 21.9885 21.0201C24.133 21.0201 25.3259 20.0249 26.617 18.6655C26.8594 20.122 27.6636 22.6231 29.8066 22.6231C30.9747 22.6231 31.8041 21.6507 31.9015 20.5349C31.7556 20.6799 31.5353 20.8017 31.292 20.8017C30.8541 20.8017 30.7567 20.1699 30.7567 19.6128C30.7567 18.7138 31.024 17.7434 31.4379 17.7434C31.6571 17.7434 31.7801 17.8884 31.8286 18.5441C31.8387 18.6482 31.8447 18.7543 31.8505 18.8573C31.8732 19.2589 31.8933 19.6128 32.1455 19.6128C32.4621 19.6128 32.656 18.6168 32.656 17.9379C32.656 16.384 31.9259 15.0002 30.3179 15.0002C29.0765 15.0002 27.9305 16.0441 27.1019 17.4035C27.1515 17.136 27.176 16.8448 27.176 16.5785C27.176 14.6847 26.1542 12.9855 24.228 12.9855C22.6709 12.9855 21.2588 13.8832 20.6733 15.6308C20.8432 15.4603 21.3553 15.1464 21.7701 15.1464C22.2573 15.1464 22.4036 15.5581 22.4036 16.2139C22.4036 16.652 22.3062 17.1603 22.1355 17.6467C21.8426 18.4459 21.3081 18.6891 21.0151 18.6891ZM30.1709 16.5781C30.3183 16.5781 30.3672 16.9171 30.3672 17.2326C30.3672 18.6891 29.6852 21.0201 29.0773 21.0201C28.9307 21.0201 28.8081 20.8017 28.8073 20.2917C28.8073 18.981 29.6596 16.5781 30.1709 16.5781ZM28.2479 17.3544C28.3444 17.3544 28.4434 17.4515 28.4434 17.8652C28.4434 18.7138 28.0531 19.5641 27.7851 19.5641C27.5426 19.5641 27.3956 19.1755 27.3471 18.3013C27.7374 17.6463 28.0046 17.3544 28.2479 17.3544ZM25.9106 15.8736C26.2019 15.8736 26.397 16.4083 26.397 16.8932V16.8932C26.397 17.2574 26.397 17.5489 26.3489 17.8648C25.7142 18.5665 25.3728 18.8596 25.1047 18.8596C24.9597 18.8596 24.815 18.6168 24.8142 18.3269C24.8146 17.8161 25.1781 15.8736 25.9106 15.8736ZM24.6443 14.1256C24.815 14.1256 24.8868 14.2714 24.8868 14.4659C24.8868 15.2191 23.9375 19.6855 23.1104 19.6855C22.8896 19.6855 22.842 19.491 22.8424 19.3213C22.8424 18.3748 23.8894 14.1256 24.6443 14.1256ZM22.9412 26.7481C21.4799 26.7481 19.2151 27.5975 18.3624 29.4917C18.3139 29.2001 18.289 28.9342 18.2886 28.6906C18.2886 27.1127 19.2383 26.0684 19.9443 25.7533C20.3098 25.5836 20.7478 25.5348 21.2358 25.5348C21.9885 25.5348 22.879 25.6942 23.795 25.8582L23.8897 25.8751C23.0618 24.7813 21.796 23.9809 20.747 23.9809C20.2613 23.9809 19.8714 24.1515 19.7492 24.5632C19.7003 24.346 19.6763 23.9813 19.6763 23.7381C19.6763 22.5501 20.0646 21.8695 21.0876 21.8695C22.5982 21.8695 23.8885 23.6667 24.6683 25.3408C24.6683 22.7941 24.7163 21.5293 25.7638 21.5293C26.3488 21.5293 27.4444 22.5744 27.7369 23.6419C27.6147 23.6171 27.4928 23.5928 27.3714 23.5928C26.5905 23.5928 26.1549 24.3695 25.5194 25.6802C26.9331 24.7321 28.2478 23.9566 29.7336 23.9566C30.9994 23.9566 31.9988 24.7325 31.9988 25.9226C31.9988 26.4318 31.7556 26.9905 31.4382 27.4753C31.2442 26.3835 30.3439 25.8987 28.7843 25.8987C27.8835 25.8987 26.8108 26.068 25.9589 26.3835C28.711 26.772 29.1253 27.7668 29.1253 28.6658C29.1253 30.1818 27.6172 30.9344 26.594 31.4449L26.5676 31.4581C26.665 31.02 26.7383 30.5583 26.7383 30.0743C26.7383 29.1506 26.3985 28.1067 25.0097 27.0883C24.9063 27.56 24.6768 27.9445 24.4639 28.3012C24.2277 28.6969 24.0119 29.0583 24.0119 29.4665C24.0119 29.7576 24.2067 29.8547 24.3525 29.8547C24.3525 30.0911 24.2952 30.5619 24.2426 30.9944C24.1979 31.3617 24.1566 31.7014 24.1566 31.8463C24.1566 32.5016 24.3032 32.623 24.6198 32.6957C24.731 33.0135 24.781 33.4534 24.828 33.8662L24.828 33.8662C24.8636 34.1792 24.8974 34.4765 24.9548 34.6933C25.0325 34.9792 25.2525 35.0511 25.4232 35.0511C25.4451 35.1056 25.4677 35.1632 25.4911 35.2229L25.4911 35.223L25.4911 35.223L25.4911 35.2231L25.4911 35.2231C25.6759 35.6949 25.9137 36.3025 26.3252 36.603C26.4209 36.6765 26.5432 36.8466 26.5432 36.992C26.5432 37.4293 25.8872 37.9153 25.4733 37.9153C25.3515 37.9153 25.1407 37.8394 24.9536 37.3917C24.886 37.229 24.6179 36.9946 24.3334 36.7458C23.9747 36.4321 23.59 36.0957 23.5487 35.8518C23.6228 35.7787 23.6705 35.6322 23.6705 35.4624C23.6705 35.1613 23.4599 34.8408 23.2255 34.4843C22.9315 34.0371 22.6002 33.5331 22.6002 32.9389C22.7212 32.8902 22.8435 32.6957 22.8435 32.4773C22.8435 32.1949 22.7059 31.7861 22.5589 31.3491L22.5589 31.3491C22.3901 30.8472 22.2087 30.3082 22.2087 29.8806C22.4776 29.8806 22.6251 29.8555 22.6483 29.4669C22.698 28.6654 22.8679 27.4757 23.6232 26.7968C23.4525 26.7724 23.2345 26.7481 22.9412 26.7481ZM66.4157 48.012C68.0678 46.5571 68.9947 44.4198 68.9947 42.4541C68.9947 40.6087 68.0206 39.0312 66.8 39.0312C65.7333 39.0312 65.1479 39.8799 65.1479 40.804C65.1479 41.344 65.3535 41.9081 65.7656 42.3193C65.3298 41.9078 64.7354 41.7018 63.9778 41.7018C63.1007 41.7018 62.367 42.3827 62.367 43.4018C62.3673 44.4963 63.2204 44.8659 64.1432 45.2656C65.2249 45.7342 66.4025 46.2443 66.4157 48.012ZM51.4351 15.0979C51.7281 15.4848 51.8988 16.2868 51.8988 16.6514C51.8988 19.2971 49.9477 20.3163 48.1502 20.3159C47.2863 20.3159 46.7407 20.1038 46.4548 19.9926C46.3534 19.9532 46.2846 19.9265 46.246 19.9265C45.9952 19.9265 45.8879 20.1992 45.7914 20.4443C45.7103 20.6504 45.6368 20.837 45.4923 20.8258C44.9309 20.7284 44.4208 19.4908 44.4208 18.1801C44.4216 17.4026 44.6163 16.5779 45.0539 15.9705C45.6878 16.5775 46.2468 16.8439 46.9296 16.8439C47.0796 16.8439 47.2443 16.8216 47.3905 16.8019C47.5072 16.7861 47.6122 16.772 47.6885 16.772C47.9077 16.772 48.052 16.8682 48.052 17.0379C48.052 17.3059 47.8088 17.7432 47.5166 17.9864C47.808 18.1074 48.1257 18.1561 48.4671 18.1561C49.8499 18.1561 51.4351 17.2816 51.4351 15.0979ZM48.1987 14.9511C48.1987 15.0972 48.2725 15.2422 48.442 15.3153C49.0707 15.606 49.461 16.0677 49.6561 16.4802C50.7524 15.8728 51.1924 14.1983 51.1924 13.2274C51.1924 12.9355 51.1924 12.5226 50.9239 12.5226C50.8317 12.5226 50.7285 12.5769 50.6197 12.6342C50.4984 12.6982 50.37 12.7658 50.2419 12.7658C50.1815 12.7658 50.092 12.7039 49.962 12.6141C49.6171 12.3757 48.987 11.9403 47.8581 11.9403C46.0782 11.9403 45.3457 13.251 45.3457 14.3193C45.3457 14.6104 45.4194 14.9019 45.5164 15.1452C45.6619 14.4647 46.3931 13.7131 47.4674 13.7131C47.808 13.7131 48.5345 13.882 48.7289 14.1979C48.4412 14.3436 48.1979 14.6839 48.1987 14.9511ZM32.6079 12.3285C32.6079 12.136 32.5586 11.9423 32.4625 11.7958C32.0237 11.1888 28.9307 8.76107 28.2479 8.76107C28.1741 8.76107 28.1257 8.83455 28.1257 8.90723C28.1257 9.75666 31.1702 13.9076 31.756 13.9076C32.2437 13.9076 32.6079 13.0585 32.6079 12.3285ZM9.4936 6.14149C8.93382 6.14149 8.20294 6.28526 7.88678 6.57639C7.61911 6.79564 7.39952 7.47615 7.39952 7.96097C7.39952 8.22774 7.47365 8.51847 7.71688 8.51847C8.37364 8.51847 10.2241 6.89269 10.2241 6.40667C10.2245 6.21258 9.8342 6.14149 9.4936 6.14149ZM62.6372 3.49356C61.4435 3.51832 59.1339 4.05306 59.1339 4.36815C59.1339 4.4929 59.5621 4.62274 60.143 4.79888C61.3678 5.17022 63.2712 5.74735 63.2712 6.91645C63.2712 8.03225 62.368 8.15446 62.0069 8.15446C61.1112 8.15446 60.4877 7.54384 60.062 7.12692C59.8413 6.9108 59.6738 6.74672 59.549 6.74672C59.4508 6.74672 59.3539 6.8202 59.3539 6.94201C59.3539 7.02348 59.3812 7.156 59.4154 7.3218L59.4154 7.32185L59.4155 7.32191C59.4726 7.59902 59.549 7.9691 59.549 8.34934C59.549 9.41876 58.7272 9.83221 58.2162 10.0893C57.9856 10.2053 57.8184 10.2894 57.8184 10.3877C57.8184 10.5095 57.8672 10.5574 58.0604 10.5817C59.329 10.7754 60.6229 10.8725 61.8342 10.8725C66.2448 10.8725 69.8492 9.51307 69.8492 5.67924C69.8492 4.45043 69.6207 3.7011 69.4327 3.08448C69.3012 2.65341 69.1896 2.2872 69.1896 1.86738C69.1896 1.52832 69.4324 0.824256 70.092 0.434483C69.4237 0.434483 69.0631 0.325679 68.7371 0.227335C68.4683 0.146244 68.2231 0.0722656 67.8484 0.0722656C66.8491 0.0722656 66.1474 0.751173 66.1474 1.77073C66.1474 1.91034 66.1679 2.08255 66.192 2.28565C66.2266 2.57757 66.2689 2.93331 66.2689 3.34779C66.2689 4.19842 66.1002 4.99913 65.3424 4.99913C64.634 4.99913 64.3679 4.53828 64.3679 4.00354C64.3679 3.46707 64.5242 3.02669 64.6638 2.63322C64.7765 2.31551 64.8784 2.02839 64.8784 1.74597C64.8784 0.605009 63.4655 0.265156 61.9557 0.265156C60.1561 0.265156 58.207 0.751573 58.207 0.994382C58.2072 1.12593 58.472 1.19084 58.8918 1.29378C59.7886 1.51363 61.393 1.90694 62.6372 3.49356ZM67.8484 0.94566C68.1902 0.94566 68.4583 1.21323 68.4583 1.55348C68.4583 1.89254 68.189 2.15931 67.8484 2.15931C67.5066 2.15931 67.2398 1.89254 67.2398 1.55348C67.2398 1.21323 67.5066 0.94566 67.8484 0.94566ZM67.3844 4.46639C68.0195 4.66088 68.4098 5.29066 68.4098 5.99553C68.4098 7.2571 67.1905 8.76108 63.8558 8.76108H63.8558C63.5637 8.76108 63.2712 8.76108 62.9534 8.73752C65.806 8.27626 67.3844 6.62532 67.3844 4.46639ZM67.8951 34.7494C68.3565 34.22 68.8178 33.6906 69.408 33.6906C69.9926 33.6906 70.2603 34.1523 70.2599 34.8819C70.2599 35.9486 69.6496 37.552 68.4804 38.5464C68.5044 38.4493 68.5044 38.3267 68.5044 38.1814C68.5044 37.5029 68.2375 36.5324 67.4562 36.5324C66.4992 36.5324 66.0546 37.348 65.5748 38.2281L65.5747 38.2282C65.4464 38.4636 65.3156 38.7036 65.1717 38.9338C64.4637 36.459 63.5132 34.2245 61.8086 32.8651C61.1571 32.3427 60.3271 32.1249 59.5464 31.92C58.2607 31.5826 57.1088 31.2803 57.1088 29.7098C57.1088 29.3811 57.2115 28.9845 57.3176 28.5747L57.3176 28.5747C57.431 28.1368 57.5483 27.6838 57.5483 27.2825C57.5483 27.0154 57.499 26.7722 57.3528 26.5781C58.7602 27.1042 59.0209 27.8751 59.3184 28.7546C59.5157 29.3377 59.7291 29.9686 60.3036 30.6076C60.5212 30.8555 60.8326 31.1004 61.1999 31.3893L61.2 31.3894L61.2 31.3894L61.2001 31.3895L61.2002 31.3895L61.2002 31.3896L61.2002 31.3896C62.3454 32.2903 64.0342 33.6186 65.1221 36.7976C65.1457 36.6766 65.1705 36.3619 65.1705 36.1431C65.1705 33.7864 63.1173 31.4606 61.5878 29.7282C60.7857 28.8197 60.1277 28.0743 59.9854 27.5733C62.7567 27.8892 63.2444 28.5693 64.5603 32.2106C64.6245 32.3896 64.723 32.6317 64.8359 32.9091L64.8361 32.9096L64.8361 32.9096C65.1983 33.7994 65.7083 35.0523 65.7083 35.7545C66.0994 34.5416 66.5874 33.691 67.3848 32.3803C67.301 32.337 67.2026 32.2887 67.0935 32.235C66.1648 31.7785 64.4653 30.9431 64.4653 29.6615C64.4653 27.9858 66.5598 26.6755 66.9949 26.6755C67.1897 26.6755 67.239 26.8456 67.239 27.1619C67.239 27.6143 67.1275 28.2106 67.0202 28.7849L67.0201 28.785C66.9204 29.3185 66.8243 29.8329 66.8243 30.1954C66.8243 30.8743 67.2622 31.5313 67.6525 31.5313C68.0672 31.5313 69.2121 30.0748 69.2121 28.6419C69.2121 26.0685 66.9457 25.2925 66.2436 25.2925C66.0292 25.2925 65.7577 25.4062 65.3917 25.5592C64.6359 25.8754 63.4775 26.36 61.589 26.36C56.3534 26.36 55.1597 21.1911 55.1597 18.9324C55.1597 18.8357 55.1822 18.811 55.207 18.811C55.2331 18.811 55.277 18.8398 55.3461 18.8852C55.6004 19.0522 56.1956 19.4432 57.4982 19.4432C57.8852 19.4432 58.2569 19.3981 58.6634 19.3489L58.6635 19.3489C59.1541 19.2895 59.6955 19.2239 60.3757 19.2239C63.1803 19.2239 64.4838 21.0868 66.183 23.5153L66.3903 23.8113C66.5167 23.89 66.6636 23.9743 66.8244 24.0666C68.051 24.7705 70.0908 25.941 70.0908 28.6663C70.0908 30.1323 69.2474 31.2454 68.36 32.4166C67.6016 33.4174 66.8111 34.4606 66.4873 35.8028C67.0279 35.7444 67.4615 35.2468 67.8951 34.7494ZM64.3574 24.1211C64.5303 24.1494 64.6927 24.1759 64.8071 24.1759C65.0018 24.1759 65.0764 24.0545 65.0752 23.9822C65.0752 23.7883 64.888 23.6613 64.6494 23.4993C64.261 23.2357 63.7363 22.8795 63.6611 21.9919C63.6354 21.7742 63.5629 21.3864 63.294 21.3864C63.0809 21.3864 63.0521 21.7025 63.0226 22.0271C62.9915 22.3694 62.9595 22.7211 62.7094 22.7211C62.0131 22.7211 61.6088 21.8766 61.3029 21.2377C61.1167 20.8489 60.967 20.5362 60.8101 20.5362C60.7123 20.5362 60.5957 20.6089 60.5957 20.9C60.5957 21.0284 60.6072 21.1342 60.6192 21.2443V21.2444V21.2444C60.6322 21.3638 60.6458 21.4881 60.6458 21.6516C60.6458 21.9679 60.5713 22.1867 60.2795 22.1867C59.9371 22.1867 59.6143 21.7728 59.3046 21.3755C59.019 21.0091 58.7444 20.6568 58.4756 20.6568C58.3537 20.6568 58.2323 20.7295 58.2323 20.8513C58.2323 20.9999 58.3592 21.2116 58.4835 21.4189C58.6026 21.6176 58.7192 21.8122 58.7192 21.9431C58.7192 22.2481 58.2863 22.3072 57.873 22.3635C57.4957 22.415 57.1348 22.4642 57.1348 22.6963C57.1348 22.9152 57.3536 22.9871 57.6465 22.9871C57.9162 22.9871 58.2669 22.9267 58.5991 22.8696C58.8977 22.8182 59.1812 22.7694 59.3771 22.7694C59.6216 22.7694 59.9866 22.8177 59.9866 23.132C59.9866 23.305 59.7592 23.503 59.5358 23.6975C59.3204 23.8851 59.1087 24.0694 59.1087 24.2247C59.1087 24.3704 59.2549 24.4423 59.3771 24.4423C59.687 24.4423 60.1096 24.1891 60.5565 23.9214C61.058 23.6209 61.5901 23.3021 62.0278 23.3021C62.1737 23.3021 62.5391 23.3748 62.5391 23.5933C62.5391 23.7356 62.3698 23.9276 62.1843 24.1379C61.9596 24.3926 61.7113 24.6743 61.7113 24.9271C61.7113 25.0489 61.7862 25.1943 61.9316 25.1943C62.1149 25.1943 62.3245 24.993 62.5676 24.7595C62.9028 24.4376 63.3016 24.0545 63.7825 24.0545C63.9507 24.0545 64.1608 24.0889 64.3574 24.1211ZM36.2625 50.2704C36.7257 50.2704 36.9709 50.6837 37.0178 51.1182C37.1885 50.9529 37.334 50.879 37.554 50.881C38.0416 50.881 38.3349 51.2668 38.3349 51.6809C38.3349 51.9485 38.1883 52.1917 37.9935 52.3363C38.2849 52.4828 38.456 52.7005 38.456 53.018C38.456 53.4053 38.163 53.6981 37.7728 53.6981C37.5929 53.6981 37.4485 53.5919 37.3018 53.4841C37.1504 53.3727 36.9965 53.2596 36.7986 53.2596C36.5802 53.2596 36.3358 53.3562 36.238 53.5012C36.3851 53.8414 36.458 54.1789 36.458 54.4948C36.458 56.3901 34.0458 57.9181 31.5378 57.9181C29.0289 57.9181 28.127 56.3662 28.127 55.734C28.127 55.5886 28.2247 55.5155 28.3954 55.5155C28.5511 55.5155 28.6622 55.5362 28.8003 55.562C29.0281 55.6044 29.3297 55.6605 30.0267 55.6605C31.3881 55.6605 31.8124 54.7262 32.2297 53.8073C32.6336 52.918 33.031 52.0431 34.2646 52.0431C34.606 52.0423 35.3617 52.2852 35.6286 52.7696C35.8225 52.5284 35.8966 52.2852 35.8966 52.0667C35.8966 51.8574 35.8274 51.6723 35.7593 51.4902C35.6934 51.3141 35.6286 51.1408 35.6286 50.9513C35.6286 50.5372 35.897 50.2704 36.2625 50.2704ZM22.5738 45.3164C21.7223 45.3164 20.771 45.7765 20.771 46.4566C20.771 46.8723 20.9902 47.163 22.549 47.5532C24.4976 48.0352 25.4725 49.0792 25.6661 50.3184C25.8608 51.5076 26.104 52.4797 26.5669 52.9641C27.1763 53.645 28.3696 54.2488 29.4179 54.2488C30.2946 54.2488 30.9999 53.9601 30.9999 53.1582C30.9999 52.2844 29.807 50.318 28.0531 50.318C27.9758 50.318 27.8883 50.3232 27.7929 50.3288C27.6786 50.3356 27.553 50.3431 27.42 50.3431C27.2008 50.3431 26.8834 50.2956 26.6895 50.1243C26.514 49.9703 26.3928 49.5151 26.2454 48.9614C26.0662 48.2885 25.8483 47.4701 25.4473 46.8711C24.6435 45.6575 23.7671 45.3164 22.5738 45.3164ZM28.1248 51.2149C28.7347 51.2149 29.8294 51.9693 29.8294 52.6011C29.8298 52.77 29.7088 52.9904 29.3449 52.9904C28.6129 52.9904 27.5173 52.2117 27.5173 51.7744C27.5173 51.4086 27.8591 51.2149 28.1248 51.2149ZM32.0725 45.8758C33.6313 45.8774 34.7757 45.2464 34.7757 44.5899C34.7757 44.0998 34.3198 43.8248 33.817 43.5214C33.1991 43.1486 32.5105 42.7331 32.5105 41.8235C32.5105 41.4098 32.7778 40.7073 33.3147 39.9533C33.5347 41.2157 34.0436 41.8715 35.1419 42.2852C37.3094 43.0851 37.6015 44.2983 37.6015 45.5867C37.6015 47.7711 36.0672 50.4899 32.1214 50.4899C28.9546 50.4899 26.6895 47.6721 26.6895 45.2939C26.6895 44.6378 26.8598 43.9114 27.2741 43.9114C27.546 43.9114 27.6829 44.0716 27.8551 44.273C27.9145 44.3426 27.9782 44.4171 28.0531 44.4916C29.1498 45.5859 30.3431 45.8758 32.0725 45.8758ZM36.2868 46.1677C36.2868 45.8263 36.0904 45.6833 35.8712 45.6833C35.7822 45.6833 35.6883 45.7643 35.5567 45.8779C35.4005 46.0128 35.1911 46.1936 34.8735 46.339C34.7158 46.4108 34.5759 46.4667 34.4529 46.516C33.924 46.7275 33.7046 46.8153 33.7046 47.5044C33.7046 47.6765 33.6828 47.8762 33.663 48.058V48.0581L33.663 48.0581C33.6465 48.21 33.6313 48.3493 33.6313 48.4496C33.6313 48.7404 33.6802 48.9109 34.0208 48.9109C34.8975 48.9109 36.2868 47.4309 36.2868 46.1677ZM30.9527 34.8575C30.9527 34.397 31.2938 33.9883 31.6751 33.5315C32.158 32.9529 32.7053 32.2971 32.7053 31.3611C32.7053 30.3907 31.7553 29.2002 30.4654 28.497C30.6846 28.9099 30.8068 29.467 30.8068 29.7833C30.8068 30.7928 29.781 31.4995 28.8092 32.1691C27.9345 32.7717 27.1035 33.3443 27.1035 34.0804C27.1035 35.2188 28.365 35.9719 29.3905 36.584C30.0929 37.0033 30.6845 37.3565 30.6842 37.7221C30.6842 38.0132 30.5119 38.2065 30.1236 38.2065C29.6848 38.2065 29.0036 37.8187 28.32 37.2361C27.5423 37.9893 27.0302 39.0316 27.0302 40.2201C27.0302 42.6242 29.563 44.6378 32.0237 44.6378C32.4385 44.6378 32.8272 44.5651 33.2647 44.4684C31.9268 44.2979 31.0496 43.2795 31.0496 42.0415C31.0496 41.1889 31.5534 40.3842 32.0246 39.6314C32.4386 38.9699 32.8276 38.3485 32.8276 37.77C32.8271 36.9771 32.3068 36.5481 31.8144 36.1422C31.3723 35.7777 30.9527 35.4318 30.9527 34.8575ZM14.7309 47.4305C13.8558 47.5272 13.08 46.8986 12.977 46.0707C12.8616 45.1274 13.6326 44.4142 14.3434 44.3088C14.4424 44.2952 14.5855 44.2736 14.5855 44.2736C14.5121 44.1043 14.4781 43.9362 14.4641 43.7888C14.3795 42.8807 14.9393 42.1646 15.786 42.0244C16.7232 41.8703 17.4104 42.5025 17.6304 43.2297C17.826 43.06 18.1185 42.9394 18.4367 42.9006C19.2553 42.8 20.0427 43.4486 20.1392 44.3223C20.2126 45.1714 19.6199 45.8754 18.7404 46.0416C18.651 46.0579 18.5324 46.0707 18.5324 46.0707C18.6045 46.2393 18.653 46.3878 18.6783 46.629C18.7748 47.5272 18.1646 48.232 17.2678 48.3479C16.3846 48.4637 15.7303 47.9641 15.5355 47.1889C15.3404 47.3095 15.0471 47.395 14.7309 47.4305ZM17.5279 45.1155C17.4698 44.6087 17.0101 44.2437 16.5008 44.3032C15.9928 44.3623 15.6285 44.8211 15.6882 45.3295C15.7463 45.8347 16.2071 46.1981 16.7156 46.139C17.2241 46.0795 17.5872 45.6226 17.5279 45.1155Z" fill="#3D3D3D"/>
</svg>
